<mxfile host="app.diagrams.net" agent="Mozilla/5.0 (Windows NT 10.0; Win64; x64) AppleWebKit/537.36 (KHTML, like Gecko) Chrome/131.0.0.0 Safari/537.36" version="26.0.4">
  <diagram name="Pagina-1" id="Non0fmks2I_13uuFwzjO">
    <mxGraphModel dx="1793" dy="975" grid="1" gridSize="10" guides="1" tooltips="1" connect="1" arrows="1" fold="1" page="1" pageScale="1" pageWidth="827" pageHeight="1169" math="0" shadow="0">
      <root>
        <mxCell id="0" />
        <mxCell id="1" parent="0" />
        <mxCell id="hq4Uyz56cgLMwsHWApPb-1" value="" style="rounded=1;whiteSpace=wrap;html=1;strokeWidth=2;strokeColor=none;absoluteArcSize=1;arcSize=0;" vertex="1" parent="1">
          <mxGeometry x="120" y="1120" width="990" height="450" as="geometry" />
        </mxCell>
        <mxCell id="hq4Uyz56cgLMwsHWApPb-2" value="" style="rounded=1;whiteSpace=wrap;html=1;strokeWidth=2;" vertex="1" parent="1">
          <mxGeometry x="194" y="1210" width="190" height="290" as="geometry" />
        </mxCell>
        <mxCell id="hq4Uyz56cgLMwsHWApPb-3" value="" style="whiteSpace=wrap;html=1;shape=mxgraph.basic.document;strokeWidth=2;fillColor=#fff2cc;strokeColor=#d6b656;" vertex="1" parent="1">
          <mxGeometry x="236" y="1255" width="105" height="100" as="geometry" />
        </mxCell>
        <mxCell id="hq4Uyz56cgLMwsHWApPb-4" value="&lt;font style=&quot;font-size: 16px;&quot;&gt;&lt;b&gt;Working Area&lt;/b&gt;&lt;/font&gt;" style="text;html=1;align=center;verticalAlign=middle;whiteSpace=wrap;rounded=0;" vertex="1" parent="1">
          <mxGeometry x="236" y="1180" width="111" height="30" as="geometry" />
        </mxCell>
        <mxCell id="hq4Uyz56cgLMwsHWApPb-5" value="file1.txt" style="text;html=1;align=center;verticalAlign=middle;whiteSpace=wrap;rounded=0;" vertex="1" parent="1">
          <mxGeometry x="246" y="1225" width="80" height="30" as="geometry" />
        </mxCell>
        <mxCell id="hq4Uyz56cgLMwsHWApPb-6" value="i&#39;m Luigi" style="text;html=1;align=center;verticalAlign=middle;whiteSpace=wrap;rounded=0;" vertex="1" parent="1">
          <mxGeometry x="236" y="1265" width="65" height="30" as="geometry" />
        </mxCell>
        <mxCell id="hq4Uyz56cgLMwsHWApPb-7" value="" style="rounded=1;whiteSpace=wrap;html=1;strokeWidth=2;" vertex="1" parent="1">
          <mxGeometry x="444" y="1215" width="190" height="275" as="geometry" />
        </mxCell>
        <mxCell id="hq4Uyz56cgLMwsHWApPb-8" value="&lt;font style=&quot;font-size: 16px;&quot;&gt;&lt;b&gt;Staging Area&lt;/b&gt;&lt;/font&gt;" style="text;html=1;align=center;verticalAlign=middle;whiteSpace=wrap;rounded=0;" vertex="1" parent="1">
          <mxGeometry x="487" y="1185" width="104" height="30" as="geometry" />
        </mxCell>
        <mxCell id="hq4Uyz56cgLMwsHWApPb-16" value="" style="rounded=1;whiteSpace=wrap;html=1;strokeWidth=2;" vertex="1" parent="1">
          <mxGeometry x="690" y="1210" width="360" height="275" as="geometry" />
        </mxCell>
        <mxCell id="hq4Uyz56cgLMwsHWApPb-17" value="&lt;b&gt;&lt;font style=&quot;font-size: 16px;&quot;&gt;Local Repo&lt;/font&gt;&lt;/b&gt;" style="text;html=1;align=center;verticalAlign=middle;whiteSpace=wrap;rounded=0;" vertex="1" parent="1">
          <mxGeometry x="820" y="1180" width="100" height="30" as="geometry" />
        </mxCell>
        <mxCell id="hq4Uyz56cgLMwsHWApPb-25" value="" style="rounded=1;whiteSpace=wrap;html=1;strokeWidth=2;strokeColor=none;absoluteArcSize=1;arcSize=0;" vertex="1" parent="1">
          <mxGeometry x="120" y="620" width="990" height="450" as="geometry" />
        </mxCell>
        <mxCell id="hq4Uyz56cgLMwsHWApPb-26" value="" style="rounded=1;whiteSpace=wrap;html=1;strokeWidth=2;" vertex="1" parent="1">
          <mxGeometry x="194" y="710" width="190" height="290" as="geometry" />
        </mxCell>
        <mxCell id="hq4Uyz56cgLMwsHWApPb-28" value="&lt;font style=&quot;font-size: 16px;&quot;&gt;&lt;b&gt;Working Area&lt;/b&gt;&lt;/font&gt;" style="text;html=1;align=center;verticalAlign=middle;whiteSpace=wrap;rounded=0;" vertex="1" parent="1">
          <mxGeometry x="236" y="680" width="111" height="30" as="geometry" />
        </mxCell>
        <mxCell id="hq4Uyz56cgLMwsHWApPb-31" value="" style="rounded=1;whiteSpace=wrap;html=1;strokeWidth=2;" vertex="1" parent="1">
          <mxGeometry x="444" y="715" width="190" height="275" as="geometry" />
        </mxCell>
        <mxCell id="hq4Uyz56cgLMwsHWApPb-32" value="&lt;font style=&quot;font-size: 16px;&quot;&gt;&lt;b&gt;Staging Area&lt;/b&gt;&lt;/font&gt;" style="text;html=1;align=center;verticalAlign=middle;whiteSpace=wrap;rounded=0;" vertex="1" parent="1">
          <mxGeometry x="487" y="685" width="104" height="30" as="geometry" />
        </mxCell>
        <mxCell id="hq4Uyz56cgLMwsHWApPb-36" value="" style="rounded=1;whiteSpace=wrap;html=1;strokeWidth=2;" vertex="1" parent="1">
          <mxGeometry x="690" y="710" width="360" height="275" as="geometry" />
        </mxCell>
        <mxCell id="hq4Uyz56cgLMwsHWApPb-37" value="&lt;b&gt;&lt;font style=&quot;font-size: 16px;&quot;&gt;Local Repo&lt;/font&gt;&lt;/b&gt;" style="text;html=1;align=center;verticalAlign=middle;whiteSpace=wrap;rounded=0;" vertex="1" parent="1">
          <mxGeometry x="820" y="680" width="100" height="30" as="geometry" />
        </mxCell>
        <mxCell id="hq4Uyz56cgLMwsHWApPb-44" value="" style="rounded=1;whiteSpace=wrap;html=1;strokeWidth=2;strokeColor=none;absoluteArcSize=1;arcSize=0;" vertex="1" parent="1">
          <mxGeometry x="120" y="110" width="990" height="450" as="geometry" />
        </mxCell>
        <mxCell id="hq4Uyz56cgLMwsHWApPb-45" value="" style="rounded=1;whiteSpace=wrap;html=1;strokeWidth=2;" vertex="1" parent="1">
          <mxGeometry x="194" y="200" width="190" height="290" as="geometry" />
        </mxCell>
        <mxCell id="hq4Uyz56cgLMwsHWApPb-47" value="&lt;font style=&quot;font-size: 16px;&quot;&gt;&lt;b&gt;Working Area&lt;/b&gt;&lt;/font&gt;" style="text;html=1;align=center;verticalAlign=middle;whiteSpace=wrap;rounded=0;" vertex="1" parent="1">
          <mxGeometry x="236" y="170" width="111" height="30" as="geometry" />
        </mxCell>
        <mxCell id="hq4Uyz56cgLMwsHWApPb-63" value="" style="rounded=1;whiteSpace=wrap;html=1;strokeWidth=2;strokeColor=none;absoluteArcSize=1;arcSize=0;" vertex="1" parent="1">
          <mxGeometry x="130" y="1630" width="990" height="450" as="geometry" />
        </mxCell>
        <mxCell id="hq4Uyz56cgLMwsHWApPb-64" value="" style="rounded=1;whiteSpace=wrap;html=1;strokeWidth=2;" vertex="1" parent="1">
          <mxGeometry x="204" y="1720" width="190" height="290" as="geometry" />
        </mxCell>
        <mxCell id="hq4Uyz56cgLMwsHWApPb-65" value="" style="whiteSpace=wrap;html=1;shape=mxgraph.basic.document;strokeWidth=2;fillColor=#fff2cc;strokeColor=#d6b656;" vertex="1" parent="1">
          <mxGeometry x="246" y="1765" width="105" height="100" as="geometry" />
        </mxCell>
        <mxCell id="hq4Uyz56cgLMwsHWApPb-66" value="&lt;font style=&quot;font-size: 16px;&quot;&gt;&lt;b&gt;Working Area&lt;/b&gt;&lt;/font&gt;" style="text;html=1;align=center;verticalAlign=middle;whiteSpace=wrap;rounded=0;" vertex="1" parent="1">
          <mxGeometry x="246" y="1690" width="111" height="30" as="geometry" />
        </mxCell>
        <mxCell id="hq4Uyz56cgLMwsHWApPb-67" value="file1.txt" style="text;html=1;align=center;verticalAlign=middle;whiteSpace=wrap;rounded=0;" vertex="1" parent="1">
          <mxGeometry x="256" y="1735" width="80" height="30" as="geometry" />
        </mxCell>
        <mxCell id="hq4Uyz56cgLMwsHWApPb-68" value="i&#39;m Luigi" style="text;html=1;align=center;verticalAlign=middle;whiteSpace=wrap;rounded=0;" vertex="1" parent="1">
          <mxGeometry x="246" y="1775" width="65" height="30" as="geometry" />
        </mxCell>
        <mxCell id="hq4Uyz56cgLMwsHWApPb-69" value="" style="rounded=1;whiteSpace=wrap;html=1;strokeWidth=2;" vertex="1" parent="1">
          <mxGeometry x="454" y="1725" width="190" height="275" as="geometry" />
        </mxCell>
        <mxCell id="hq4Uyz56cgLMwsHWApPb-70" value="&lt;font style=&quot;font-size: 16px;&quot;&gt;&lt;b&gt;Staging Area&lt;/b&gt;&lt;/font&gt;" style="text;html=1;align=center;verticalAlign=middle;whiteSpace=wrap;rounded=0;" vertex="1" parent="1">
          <mxGeometry x="497" y="1695" width="104" height="30" as="geometry" />
        </mxCell>
        <mxCell id="hq4Uyz56cgLMwsHWApPb-71" value="" style="whiteSpace=wrap;html=1;shape=mxgraph.basic.document;strokeWidth=2;fillColor=#fff2cc;strokeColor=#d6b656;" vertex="1" parent="1">
          <mxGeometry x="496" y="1765" width="105" height="100" as="geometry" />
        </mxCell>
        <mxCell id="hq4Uyz56cgLMwsHWApPb-72" value="file1.txt" style="text;html=1;align=center;verticalAlign=middle;whiteSpace=wrap;rounded=0;" vertex="1" parent="1">
          <mxGeometry x="506" y="1735" width="80" height="30" as="geometry" />
        </mxCell>
        <mxCell id="hq4Uyz56cgLMwsHWApPb-73" value="i&#39;m Luigi" style="text;html=1;align=center;verticalAlign=middle;whiteSpace=wrap;rounded=0;" vertex="1" parent="1">
          <mxGeometry x="496" y="1775" width="65" height="30" as="geometry" />
        </mxCell>
        <mxCell id="hq4Uyz56cgLMwsHWApPb-74" value="" style="rounded=1;whiteSpace=wrap;html=1;strokeWidth=2;" vertex="1" parent="1">
          <mxGeometry x="700" y="1720" width="360" height="275" as="geometry" />
        </mxCell>
        <mxCell id="hq4Uyz56cgLMwsHWApPb-75" value="&lt;b&gt;&lt;font style=&quot;font-size: 16px;&quot;&gt;Local Repo&lt;/font&gt;&lt;/b&gt;" style="text;html=1;align=center;verticalAlign=middle;whiteSpace=wrap;rounded=0;" vertex="1" parent="1">
          <mxGeometry x="830" y="1690" width="100" height="30" as="geometry" />
        </mxCell>
        <mxCell id="hq4Uyz56cgLMwsHWApPb-82" value="" style="rounded=1;whiteSpace=wrap;html=1;strokeWidth=2;strokeColor=none;absoluteArcSize=1;arcSize=0;" vertex="1" parent="1">
          <mxGeometry x="140" y="2170" width="990" height="450" as="geometry" />
        </mxCell>
        <mxCell id="hq4Uyz56cgLMwsHWApPb-83" value="" style="rounded=1;whiteSpace=wrap;html=1;strokeWidth=2;" vertex="1" parent="1">
          <mxGeometry x="214" y="2260" width="190" height="290" as="geometry" />
        </mxCell>
        <mxCell id="hq4Uyz56cgLMwsHWApPb-84" value="" style="whiteSpace=wrap;html=1;shape=mxgraph.basic.document;strokeWidth=2;fillColor=#fff2cc;strokeColor=#d6b656;" vertex="1" parent="1">
          <mxGeometry x="256" y="2305" width="105" height="100" as="geometry" />
        </mxCell>
        <mxCell id="hq4Uyz56cgLMwsHWApPb-85" value="&lt;font style=&quot;font-size: 16px;&quot;&gt;&lt;b&gt;Working Area&lt;/b&gt;&lt;/font&gt;" style="text;html=1;align=center;verticalAlign=middle;whiteSpace=wrap;rounded=0;" vertex="1" parent="1">
          <mxGeometry x="256" y="2230" width="111" height="30" as="geometry" />
        </mxCell>
        <mxCell id="hq4Uyz56cgLMwsHWApPb-86" value="file1.txt" style="text;html=1;align=center;verticalAlign=middle;whiteSpace=wrap;rounded=0;" vertex="1" parent="1">
          <mxGeometry x="266" y="2275" width="80" height="30" as="geometry" />
        </mxCell>
        <mxCell id="hq4Uyz56cgLMwsHWApPb-87" value="i&#39;m Luigi" style="text;html=1;align=center;verticalAlign=middle;whiteSpace=wrap;rounded=0;" vertex="1" parent="1">
          <mxGeometry x="256" y="2315" width="65" height="30" as="geometry" />
        </mxCell>
        <mxCell id="hq4Uyz56cgLMwsHWApPb-88" value="" style="rounded=1;whiteSpace=wrap;html=1;strokeWidth=2;" vertex="1" parent="1">
          <mxGeometry x="464" y="2265" width="190" height="275" as="geometry" />
        </mxCell>
        <mxCell id="hq4Uyz56cgLMwsHWApPb-89" value="&lt;font style=&quot;font-size: 16px;&quot;&gt;&lt;b&gt;Staging Area&lt;/b&gt;&lt;/font&gt;" style="text;html=1;align=center;verticalAlign=middle;whiteSpace=wrap;rounded=0;" vertex="1" parent="1">
          <mxGeometry x="507" y="2235" width="104" height="30" as="geometry" />
        </mxCell>
        <mxCell id="hq4Uyz56cgLMwsHWApPb-90" value="" style="whiteSpace=wrap;html=1;shape=mxgraph.basic.document;strokeWidth=2;fillColor=#fff2cc;strokeColor=#d6b656;" vertex="1" parent="1">
          <mxGeometry x="506" y="2305" width="105" height="100" as="geometry" />
        </mxCell>
        <mxCell id="hq4Uyz56cgLMwsHWApPb-91" value="file1.txt" style="text;html=1;align=center;verticalAlign=middle;whiteSpace=wrap;rounded=0;" vertex="1" parent="1">
          <mxGeometry x="516" y="2275" width="80" height="30" as="geometry" />
        </mxCell>
        <mxCell id="hq4Uyz56cgLMwsHWApPb-92" value="i&#39;m Luigi" style="text;html=1;align=center;verticalAlign=middle;whiteSpace=wrap;rounded=0;" vertex="1" parent="1">
          <mxGeometry x="506" y="2315" width="65" height="30" as="geometry" />
        </mxCell>
        <mxCell id="hq4Uyz56cgLMwsHWApPb-93" value="" style="rounded=1;whiteSpace=wrap;html=1;strokeWidth=2;" vertex="1" parent="1">
          <mxGeometry x="710" y="2260" width="360" height="275" as="geometry" />
        </mxCell>
        <mxCell id="hq4Uyz56cgLMwsHWApPb-94" value="&lt;b&gt;&lt;font style=&quot;font-size: 16px;&quot;&gt;Local Repo&lt;/font&gt;&lt;/b&gt;" style="text;html=1;align=center;verticalAlign=middle;whiteSpace=wrap;rounded=0;" vertex="1" parent="1">
          <mxGeometry x="840" y="2230" width="100" height="30" as="geometry" />
        </mxCell>
        <mxCell id="hq4Uyz56cgLMwsHWApPb-95" value="&lt;font style=&quot;font-size: 16px;&quot;&gt;5ebf39d&lt;/font&gt;" style="ellipse;whiteSpace=wrap;html=1;aspect=fixed;strokeWidth=2;fillColor=#dae8fc;strokeColor=#6c8ebf;" vertex="1" parent="1">
          <mxGeometry x="850.5" y="2310" width="80" height="80" as="geometry" />
        </mxCell>
        <mxCell id="hq4Uyz56cgLMwsHWApPb-96" value="&lt;font style=&quot;font-size: 16px;&quot;&gt;&quot;first commit&quot;&lt;/font&gt;" style="text;html=1;align=center;verticalAlign=middle;whiteSpace=wrap;rounded=0;" vertex="1" parent="1">
          <mxGeometry x="835.25" y="2280" width="110.5" height="30" as="geometry" />
        </mxCell>
        <mxCell id="hq4Uyz56cgLMwsHWApPb-97" style="edgeStyle=orthogonalEdgeStyle;rounded=0;orthogonalLoop=1;jettySize=auto;html=1;endArrow=none;endFill=0;startArrow=classic;startFill=1;strokeWidth=2;" edge="1" parent="1">
          <mxGeometry relative="1" as="geometry">
            <mxPoint x="890" y="2500" as="targetPoint" />
            <mxPoint x="890" y="2460" as="sourcePoint" />
          </mxGeometry>
        </mxCell>
        <mxCell id="hq4Uyz56cgLMwsHWApPb-98" value="&lt;font style=&quot;font-size: 16px;&quot;&gt;HEAD&lt;/font&gt;" style="text;html=1;align=center;verticalAlign=middle;whiteSpace=wrap;rounded=0;fillColor=#f8cecc;strokeColor=#b85450;" vertex="1" parent="1">
          <mxGeometry x="860.5" y="2490" width="60" height="30" as="geometry" />
        </mxCell>
        <mxCell id="hq4Uyz56cgLMwsHWApPb-99" value="&lt;font style=&quot;font-size: 16px;&quot;&gt;master&lt;/font&gt;" style="text;html=1;align=center;verticalAlign=middle;whiteSpace=wrap;rounded=0;fillColor=#dae8fc;strokeColor=#6c8ebf;" vertex="1" parent="1">
          <mxGeometry x="860.5" y="2430" width="60" height="30" as="geometry" />
        </mxCell>
        <mxCell id="hq4Uyz56cgLMwsHWApPb-100" value="" style="endArrow=classic;html=1;rounded=0;entryX=0.5;entryY=1;entryDx=0;entryDy=0;exitX=0.5;exitY=0;exitDx=0;exitDy=0;strokeWidth=2;" edge="1" parent="1" source="hq4Uyz56cgLMwsHWApPb-99">
          <mxGeometry width="50" height="50" relative="1" as="geometry">
            <mxPoint x="830.5" y="2460" as="sourcePoint" />
            <mxPoint x="890.5" y="2390" as="targetPoint" />
          </mxGeometry>
        </mxCell>
        <mxCell id="hq4Uyz56cgLMwsHWApPb-101" value="" style="rounded=1;whiteSpace=wrap;html=1;strokeWidth=2;strokeColor=none;absoluteArcSize=1;arcSize=0;" vertex="1" parent="1">
          <mxGeometry x="140" y="2660" width="990" height="450" as="geometry" />
        </mxCell>
        <mxCell id="hq4Uyz56cgLMwsHWApPb-102" value="" style="rounded=1;whiteSpace=wrap;html=1;strokeWidth=2;" vertex="1" parent="1">
          <mxGeometry x="214" y="2750" width="190" height="290" as="geometry" />
        </mxCell>
        <mxCell id="hq4Uyz56cgLMwsHWApPb-103" value="" style="whiteSpace=wrap;html=1;shape=mxgraph.basic.document;strokeWidth=2;fillColor=#fff2cc;strokeColor=#d6b656;" vertex="1" parent="1">
          <mxGeometry x="256" y="2795" width="105" height="100" as="geometry" />
        </mxCell>
        <mxCell id="hq4Uyz56cgLMwsHWApPb-104" value="&lt;font style=&quot;font-size: 16px;&quot;&gt;&lt;b&gt;Working Area&lt;/b&gt;&lt;/font&gt;" style="text;html=1;align=center;verticalAlign=middle;whiteSpace=wrap;rounded=0;" vertex="1" parent="1">
          <mxGeometry x="256" y="2720" width="111" height="30" as="geometry" />
        </mxCell>
        <mxCell id="hq4Uyz56cgLMwsHWApPb-105" value="file1.txt" style="text;html=1;align=center;verticalAlign=middle;whiteSpace=wrap;rounded=0;" vertex="1" parent="1">
          <mxGeometry x="266" y="2765" width="80" height="30" as="geometry" />
        </mxCell>
        <mxCell id="hq4Uyz56cgLMwsHWApPb-106" value="i&#39;m Luigi" style="text;html=1;align=center;verticalAlign=middle;whiteSpace=wrap;rounded=0;" vertex="1" parent="1">
          <mxGeometry x="256" y="2805" width="65" height="30" as="geometry" />
        </mxCell>
        <mxCell id="hq4Uyz56cgLMwsHWApPb-107" value="" style="rounded=1;whiteSpace=wrap;html=1;strokeWidth=2;" vertex="1" parent="1">
          <mxGeometry x="464" y="2755" width="190" height="275" as="geometry" />
        </mxCell>
        <mxCell id="hq4Uyz56cgLMwsHWApPb-108" value="&lt;font style=&quot;font-size: 16px;&quot;&gt;&lt;b&gt;Staging Area&lt;/b&gt;&lt;/font&gt;" style="text;html=1;align=center;verticalAlign=middle;whiteSpace=wrap;rounded=0;" vertex="1" parent="1">
          <mxGeometry x="507" y="2725" width="104" height="30" as="geometry" />
        </mxCell>
        <mxCell id="hq4Uyz56cgLMwsHWApPb-109" value="" style="whiteSpace=wrap;html=1;shape=mxgraph.basic.document;strokeWidth=2;fillColor=#fff2cc;strokeColor=#d6b656;" vertex="1" parent="1">
          <mxGeometry x="506" y="2795" width="105" height="100" as="geometry" />
        </mxCell>
        <mxCell id="hq4Uyz56cgLMwsHWApPb-110" value="file1.txt" style="text;html=1;align=center;verticalAlign=middle;whiteSpace=wrap;rounded=0;" vertex="1" parent="1">
          <mxGeometry x="516" y="2765" width="80" height="30" as="geometry" />
        </mxCell>
        <mxCell id="hq4Uyz56cgLMwsHWApPb-111" value="i&#39;m Luigi" style="text;html=1;align=center;verticalAlign=middle;whiteSpace=wrap;rounded=0;" vertex="1" parent="1">
          <mxGeometry x="506" y="2805" width="65" height="30" as="geometry" />
        </mxCell>
        <mxCell id="hq4Uyz56cgLMwsHWApPb-112" value="" style="rounded=1;whiteSpace=wrap;html=1;strokeWidth=2;" vertex="1" parent="1">
          <mxGeometry x="710" y="2750" width="360" height="275" as="geometry" />
        </mxCell>
        <mxCell id="hq4Uyz56cgLMwsHWApPb-113" value="&lt;b&gt;&lt;font style=&quot;font-size: 16px;&quot;&gt;Local Repo&lt;/font&gt;&lt;/b&gt;" style="text;html=1;align=center;verticalAlign=middle;whiteSpace=wrap;rounded=0;" vertex="1" parent="1">
          <mxGeometry x="840" y="2720" width="100" height="30" as="geometry" />
        </mxCell>
        <mxCell id="hq4Uyz56cgLMwsHWApPb-114" value="&lt;font style=&quot;font-size: 16px;&quot;&gt;5ebf39d&lt;/font&gt;" style="ellipse;whiteSpace=wrap;html=1;aspect=fixed;strokeWidth=2;fillColor=#dae8fc;strokeColor=#6c8ebf;" vertex="1" parent="1">
          <mxGeometry x="850.5" y="2800" width="80" height="80" as="geometry" />
        </mxCell>
        <mxCell id="hq4Uyz56cgLMwsHWApPb-115" value="&lt;font style=&quot;font-size: 16px;&quot;&gt;&quot;first commit&quot;&lt;/font&gt;" style="text;html=1;align=center;verticalAlign=middle;whiteSpace=wrap;rounded=0;" vertex="1" parent="1">
          <mxGeometry x="835.25" y="2770" width="110.5" height="30" as="geometry" />
        </mxCell>
        <mxCell id="hq4Uyz56cgLMwsHWApPb-116" style="edgeStyle=orthogonalEdgeStyle;rounded=0;orthogonalLoop=1;jettySize=auto;html=1;endArrow=none;endFill=0;startArrow=classic;startFill=1;strokeWidth=2;" edge="1" parent="1">
          <mxGeometry relative="1" as="geometry">
            <mxPoint x="890" y="2990" as="targetPoint" />
            <mxPoint x="890" y="2950" as="sourcePoint" />
          </mxGeometry>
        </mxCell>
        <mxCell id="hq4Uyz56cgLMwsHWApPb-117" value="&lt;font style=&quot;font-size: 16px;&quot;&gt;HEAD&lt;/font&gt;" style="text;html=1;align=center;verticalAlign=middle;whiteSpace=wrap;rounded=0;fillColor=#f8cecc;strokeColor=#b85450;" vertex="1" parent="1">
          <mxGeometry x="860.5" y="2980" width="60" height="30" as="geometry" />
        </mxCell>
        <mxCell id="hq4Uyz56cgLMwsHWApPb-118" value="&lt;font style=&quot;font-size: 16px;&quot;&gt;master&lt;/font&gt;" style="text;html=1;align=center;verticalAlign=middle;whiteSpace=wrap;rounded=0;fillColor=#dae8fc;strokeColor=#6c8ebf;" vertex="1" parent="1">
          <mxGeometry x="860.5" y="2920" width="60" height="30" as="geometry" />
        </mxCell>
        <mxCell id="hq4Uyz56cgLMwsHWApPb-119" value="" style="endArrow=classic;html=1;rounded=0;entryX=0.5;entryY=1;entryDx=0;entryDy=0;exitX=0.5;exitY=0;exitDx=0;exitDy=0;strokeWidth=2;" edge="1" parent="1" source="hq4Uyz56cgLMwsHWApPb-118">
          <mxGeometry width="50" height="50" relative="1" as="geometry">
            <mxPoint x="830.5" y="2950" as="sourcePoint" />
            <mxPoint x="890.5" y="2880" as="targetPoint" />
          </mxGeometry>
        </mxCell>
        <mxCell id="hq4Uyz56cgLMwsHWApPb-120" value="ciao!" style="text;html=1;align=center;verticalAlign=middle;whiteSpace=wrap;rounded=0;" vertex="1" parent="1">
          <mxGeometry x="246" y="2830" width="65" height="30" as="geometry" />
        </mxCell>
        <mxCell id="hq4Uyz56cgLMwsHWApPb-121" value="" style="rounded=1;whiteSpace=wrap;html=1;strokeWidth=2;strokeColor=none;absoluteArcSize=1;arcSize=0;" vertex="1" parent="1">
          <mxGeometry x="150" y="3180" width="990" height="450" as="geometry" />
        </mxCell>
        <mxCell id="hq4Uyz56cgLMwsHWApPb-122" value="" style="rounded=1;whiteSpace=wrap;html=1;strokeWidth=2;" vertex="1" parent="1">
          <mxGeometry x="224" y="3270" width="190" height="290" as="geometry" />
        </mxCell>
        <mxCell id="hq4Uyz56cgLMwsHWApPb-123" value="" style="whiteSpace=wrap;html=1;shape=mxgraph.basic.document;strokeWidth=2;fillColor=#fff2cc;strokeColor=#d6b656;" vertex="1" parent="1">
          <mxGeometry x="266" y="3315" width="105" height="100" as="geometry" />
        </mxCell>
        <mxCell id="hq4Uyz56cgLMwsHWApPb-124" value="&lt;font style=&quot;font-size: 16px;&quot;&gt;&lt;b&gt;Working Area&lt;/b&gt;&lt;/font&gt;" style="text;html=1;align=center;verticalAlign=middle;whiteSpace=wrap;rounded=0;" vertex="1" parent="1">
          <mxGeometry x="266" y="3240" width="111" height="30" as="geometry" />
        </mxCell>
        <mxCell id="hq4Uyz56cgLMwsHWApPb-125" value="file1.txt" style="text;html=1;align=center;verticalAlign=middle;whiteSpace=wrap;rounded=0;" vertex="1" parent="1">
          <mxGeometry x="276" y="3285" width="80" height="30" as="geometry" />
        </mxCell>
        <mxCell id="hq4Uyz56cgLMwsHWApPb-126" value="i&#39;m Luigi" style="text;html=1;align=center;verticalAlign=middle;whiteSpace=wrap;rounded=0;" vertex="1" parent="1">
          <mxGeometry x="266" y="3325" width="65" height="30" as="geometry" />
        </mxCell>
        <mxCell id="hq4Uyz56cgLMwsHWApPb-127" value="" style="rounded=1;whiteSpace=wrap;html=1;strokeWidth=2;" vertex="1" parent="1">
          <mxGeometry x="474" y="3275" width="190" height="275" as="geometry" />
        </mxCell>
        <mxCell id="hq4Uyz56cgLMwsHWApPb-128" value="&lt;font style=&quot;font-size: 16px;&quot;&gt;&lt;b&gt;Staging Area&lt;/b&gt;&lt;/font&gt;" style="text;html=1;align=center;verticalAlign=middle;whiteSpace=wrap;rounded=0;" vertex="1" parent="1">
          <mxGeometry x="517" y="3245" width="104" height="30" as="geometry" />
        </mxCell>
        <mxCell id="hq4Uyz56cgLMwsHWApPb-129" value="" style="whiteSpace=wrap;html=1;shape=mxgraph.basic.document;strokeWidth=2;fillColor=#fff2cc;strokeColor=#d6b656;" vertex="1" parent="1">
          <mxGeometry x="516" y="3315" width="105" height="100" as="geometry" />
        </mxCell>
        <mxCell id="hq4Uyz56cgLMwsHWApPb-130" value="file1.txt" style="text;html=1;align=center;verticalAlign=middle;whiteSpace=wrap;rounded=0;" vertex="1" parent="1">
          <mxGeometry x="526" y="3285" width="80" height="30" as="geometry" />
        </mxCell>
        <mxCell id="hq4Uyz56cgLMwsHWApPb-131" value="i&#39;m Luigi" style="text;html=1;align=center;verticalAlign=middle;whiteSpace=wrap;rounded=0;" vertex="1" parent="1">
          <mxGeometry x="516" y="3325" width="65" height="30" as="geometry" />
        </mxCell>
        <mxCell id="hq4Uyz56cgLMwsHWApPb-132" value="" style="rounded=1;whiteSpace=wrap;html=1;strokeWidth=2;" vertex="1" parent="1">
          <mxGeometry x="720" y="3270" width="360" height="275" as="geometry" />
        </mxCell>
        <mxCell id="hq4Uyz56cgLMwsHWApPb-133" value="&lt;b&gt;&lt;font style=&quot;font-size: 16px;&quot;&gt;Local Repo&lt;/font&gt;&lt;/b&gt;" style="text;html=1;align=center;verticalAlign=middle;whiteSpace=wrap;rounded=0;" vertex="1" parent="1">
          <mxGeometry x="850" y="3240" width="100" height="30" as="geometry" />
        </mxCell>
        <mxCell id="hq4Uyz56cgLMwsHWApPb-134" value="&lt;font style=&quot;font-size: 16px;&quot;&gt;5ebf39d&lt;/font&gt;" style="ellipse;whiteSpace=wrap;html=1;aspect=fixed;strokeWidth=2;fillColor=#dae8fc;strokeColor=#6c8ebf;" vertex="1" parent="1">
          <mxGeometry x="860.5" y="3320" width="80" height="80" as="geometry" />
        </mxCell>
        <mxCell id="hq4Uyz56cgLMwsHWApPb-135" value="&lt;font style=&quot;font-size: 16px;&quot;&gt;&quot;first commit&quot;&lt;/font&gt;" style="text;html=1;align=center;verticalAlign=middle;whiteSpace=wrap;rounded=0;" vertex="1" parent="1">
          <mxGeometry x="845.25" y="3290" width="110.5" height="30" as="geometry" />
        </mxCell>
        <mxCell id="hq4Uyz56cgLMwsHWApPb-136" style="edgeStyle=orthogonalEdgeStyle;rounded=0;orthogonalLoop=1;jettySize=auto;html=1;endArrow=none;endFill=0;startArrow=classic;startFill=1;strokeWidth=2;" edge="1" parent="1">
          <mxGeometry relative="1" as="geometry">
            <mxPoint x="900" y="3510" as="targetPoint" />
            <mxPoint x="900" y="3470" as="sourcePoint" />
          </mxGeometry>
        </mxCell>
        <mxCell id="hq4Uyz56cgLMwsHWApPb-137" value="&lt;font style=&quot;font-size: 16px;&quot;&gt;HEAD&lt;/font&gt;" style="text;html=1;align=center;verticalAlign=middle;whiteSpace=wrap;rounded=0;fillColor=#f8cecc;strokeColor=#b85450;" vertex="1" parent="1">
          <mxGeometry x="870.5" y="3500" width="60" height="30" as="geometry" />
        </mxCell>
        <mxCell id="hq4Uyz56cgLMwsHWApPb-138" value="&lt;font style=&quot;font-size: 16px;&quot;&gt;master&lt;/font&gt;" style="text;html=1;align=center;verticalAlign=middle;whiteSpace=wrap;rounded=0;fillColor=#dae8fc;strokeColor=#6c8ebf;" vertex="1" parent="1">
          <mxGeometry x="870.5" y="3440" width="60" height="30" as="geometry" />
        </mxCell>
        <mxCell id="hq4Uyz56cgLMwsHWApPb-139" value="" style="endArrow=classic;html=1;rounded=0;entryX=0.5;entryY=1;entryDx=0;entryDy=0;exitX=0.5;exitY=0;exitDx=0;exitDy=0;strokeWidth=2;" edge="1" parent="1" source="hq4Uyz56cgLMwsHWApPb-138">
          <mxGeometry width="50" height="50" relative="1" as="geometry">
            <mxPoint x="840.5" y="3470" as="sourcePoint" />
            <mxPoint x="900.5" y="3400" as="targetPoint" />
          </mxGeometry>
        </mxCell>
        <mxCell id="hq4Uyz56cgLMwsHWApPb-140" value="ciao!" style="text;html=1;align=center;verticalAlign=middle;whiteSpace=wrap;rounded=0;" vertex="1" parent="1">
          <mxGeometry x="256" y="3350" width="65" height="30" as="geometry" />
        </mxCell>
        <mxCell id="hq4Uyz56cgLMwsHWApPb-141" value="ciao!" style="text;html=1;align=center;verticalAlign=middle;whiteSpace=wrap;rounded=0;" vertex="1" parent="1">
          <mxGeometry x="507" y="3345" width="65" height="30" as="geometry" />
        </mxCell>
        <mxCell id="hq4Uyz56cgLMwsHWApPb-142" value="" style="rounded=1;whiteSpace=wrap;html=1;strokeWidth=2;strokeColor=none;absoluteArcSize=1;arcSize=0;" vertex="1" parent="1">
          <mxGeometry x="160" y="3730" width="990" height="450" as="geometry" />
        </mxCell>
        <mxCell id="hq4Uyz56cgLMwsHWApPb-143" value="" style="rounded=1;whiteSpace=wrap;html=1;strokeWidth=2;" vertex="1" parent="1">
          <mxGeometry x="234" y="3820" width="190" height="290" as="geometry" />
        </mxCell>
        <mxCell id="hq4Uyz56cgLMwsHWApPb-144" value="" style="whiteSpace=wrap;html=1;shape=mxgraph.basic.document;strokeWidth=2;fillColor=#fff2cc;strokeColor=#d6b656;" vertex="1" parent="1">
          <mxGeometry x="276" y="3865" width="105" height="100" as="geometry" />
        </mxCell>
        <mxCell id="hq4Uyz56cgLMwsHWApPb-145" value="&lt;font style=&quot;font-size: 16px;&quot;&gt;&lt;b&gt;Working Area&lt;/b&gt;&lt;/font&gt;" style="text;html=1;align=center;verticalAlign=middle;whiteSpace=wrap;rounded=0;" vertex="1" parent="1">
          <mxGeometry x="276" y="3790" width="111" height="30" as="geometry" />
        </mxCell>
        <mxCell id="hq4Uyz56cgLMwsHWApPb-146" value="file1.txt" style="text;html=1;align=center;verticalAlign=middle;whiteSpace=wrap;rounded=0;" vertex="1" parent="1">
          <mxGeometry x="286" y="3835" width="80" height="30" as="geometry" />
        </mxCell>
        <mxCell id="hq4Uyz56cgLMwsHWApPb-147" value="i&#39;m Luigi" style="text;html=1;align=center;verticalAlign=middle;whiteSpace=wrap;rounded=0;" vertex="1" parent="1">
          <mxGeometry x="276" y="3875" width="65" height="30" as="geometry" />
        </mxCell>
        <mxCell id="hq4Uyz56cgLMwsHWApPb-148" value="" style="rounded=1;whiteSpace=wrap;html=1;strokeWidth=2;" vertex="1" parent="1">
          <mxGeometry x="484" y="3825" width="190" height="275" as="geometry" />
        </mxCell>
        <mxCell id="hq4Uyz56cgLMwsHWApPb-149" value="&lt;font style=&quot;font-size: 16px;&quot;&gt;&lt;b&gt;Staging Area&lt;/b&gt;&lt;/font&gt;" style="text;html=1;align=center;verticalAlign=middle;whiteSpace=wrap;rounded=0;" vertex="1" parent="1">
          <mxGeometry x="527" y="3795" width="104" height="30" as="geometry" />
        </mxCell>
        <mxCell id="hq4Uyz56cgLMwsHWApPb-150" value="" style="whiteSpace=wrap;html=1;shape=mxgraph.basic.document;strokeWidth=2;fillColor=#fff2cc;strokeColor=#d6b656;" vertex="1" parent="1">
          <mxGeometry x="526" y="3865" width="105" height="100" as="geometry" />
        </mxCell>
        <mxCell id="hq4Uyz56cgLMwsHWApPb-151" value="file1.txt" style="text;html=1;align=center;verticalAlign=middle;whiteSpace=wrap;rounded=0;" vertex="1" parent="1">
          <mxGeometry x="536" y="3835" width="80" height="30" as="geometry" />
        </mxCell>
        <mxCell id="hq4Uyz56cgLMwsHWApPb-152" value="i&#39;m Luigi" style="text;html=1;align=center;verticalAlign=middle;whiteSpace=wrap;rounded=0;" vertex="1" parent="1">
          <mxGeometry x="526" y="3875" width="65" height="30" as="geometry" />
        </mxCell>
        <mxCell id="hq4Uyz56cgLMwsHWApPb-153" value="" style="rounded=1;whiteSpace=wrap;html=1;strokeWidth=2;" vertex="1" parent="1">
          <mxGeometry x="730" y="3820" width="360" height="275" as="geometry" />
        </mxCell>
        <mxCell id="hq4Uyz56cgLMwsHWApPb-154" value="&lt;b&gt;&lt;font style=&quot;font-size: 16px;&quot;&gt;Local Repo&lt;/font&gt;&lt;/b&gt;" style="text;html=1;align=center;verticalAlign=middle;whiteSpace=wrap;rounded=0;" vertex="1" parent="1">
          <mxGeometry x="860" y="3790" width="100" height="30" as="geometry" />
        </mxCell>
        <mxCell id="hq4Uyz56cgLMwsHWApPb-155" value="&lt;font style=&quot;font-size: 16px;&quot;&gt;5ebf39d&lt;/font&gt;" style="ellipse;whiteSpace=wrap;html=1;aspect=fixed;strokeWidth=2;fillColor=#dae8fc;strokeColor=#6c8ebf;" vertex="1" parent="1">
          <mxGeometry x="791.5" y="3870" width="80" height="80" as="geometry" />
        </mxCell>
        <mxCell id="hq4Uyz56cgLMwsHWApPb-156" value="&lt;font style=&quot;font-size: 16px;&quot;&gt;&quot;first commit&quot;&lt;/font&gt;" style="text;html=1;align=center;verticalAlign=middle;whiteSpace=wrap;rounded=0;" vertex="1" parent="1">
          <mxGeometry x="776.25" y="3840" width="110.5" height="30" as="geometry" />
        </mxCell>
        <mxCell id="hq4Uyz56cgLMwsHWApPb-157" style="edgeStyle=orthogonalEdgeStyle;rounded=0;orthogonalLoop=1;jettySize=auto;html=1;endArrow=none;endFill=0;startArrow=classic;startFill=1;strokeWidth=2;" edge="1" parent="1">
          <mxGeometry relative="1" as="geometry">
            <mxPoint x="988.25" y="4060" as="targetPoint" />
            <mxPoint x="988.25" y="4020" as="sourcePoint" />
          </mxGeometry>
        </mxCell>
        <mxCell id="hq4Uyz56cgLMwsHWApPb-158" value="&lt;font style=&quot;font-size: 16px;&quot;&gt;HEAD&lt;/font&gt;" style="text;html=1;align=center;verticalAlign=middle;whiteSpace=wrap;rounded=0;fillColor=#f8cecc;strokeColor=#b85450;" vertex="1" parent="1">
          <mxGeometry x="958.75" y="4050" width="60" height="30" as="geometry" />
        </mxCell>
        <mxCell id="hq4Uyz56cgLMwsHWApPb-159" value="&lt;font style=&quot;font-size: 16px;&quot;&gt;master&lt;/font&gt;" style="text;html=1;align=center;verticalAlign=middle;whiteSpace=wrap;rounded=0;fillColor=#dae8fc;strokeColor=#6c8ebf;" vertex="1" parent="1">
          <mxGeometry x="958.75" y="3990" width="60" height="30" as="geometry" />
        </mxCell>
        <mxCell id="hq4Uyz56cgLMwsHWApPb-160" value="" style="endArrow=classic;html=1;rounded=0;entryX=0.5;entryY=1;entryDx=0;entryDy=0;exitX=0.5;exitY=0;exitDx=0;exitDy=0;strokeWidth=2;" edge="1" parent="1" source="hq4Uyz56cgLMwsHWApPb-159">
          <mxGeometry width="50" height="50" relative="1" as="geometry">
            <mxPoint x="928.75" y="4020" as="sourcePoint" />
            <mxPoint x="988.75" y="3950" as="targetPoint" />
          </mxGeometry>
        </mxCell>
        <mxCell id="hq4Uyz56cgLMwsHWApPb-161" value="ciao!" style="text;html=1;align=center;verticalAlign=middle;whiteSpace=wrap;rounded=0;" vertex="1" parent="1">
          <mxGeometry x="266" y="3900" width="65" height="30" as="geometry" />
        </mxCell>
        <mxCell id="hq4Uyz56cgLMwsHWApPb-162" value="ciao!" style="text;html=1;align=center;verticalAlign=middle;whiteSpace=wrap;rounded=0;" vertex="1" parent="1">
          <mxGeometry x="517" y="3895" width="65" height="30" as="geometry" />
        </mxCell>
        <mxCell id="hq4Uyz56cgLMwsHWApPb-164" style="edgeStyle=orthogonalEdgeStyle;rounded=0;orthogonalLoop=1;jettySize=auto;html=1;entryX=1;entryY=0.5;entryDx=0;entryDy=0;strokeWidth=2;" edge="1" parent="1" source="hq4Uyz56cgLMwsHWApPb-163" target="hq4Uyz56cgLMwsHWApPb-155">
          <mxGeometry relative="1" as="geometry" />
        </mxCell>
        <mxCell id="hq4Uyz56cgLMwsHWApPb-163" value="&lt;font style=&quot;font-size: 16px;&quot;&gt;b9b394f&lt;/font&gt;" style="ellipse;whiteSpace=wrap;html=1;aspect=fixed;strokeWidth=2;fillColor=#dae8fc;strokeColor=#6c8ebf;" vertex="1" parent="1">
          <mxGeometry x="948.75" y="3870" width="80" height="80" as="geometry" />
        </mxCell>
        <mxCell id="hq4Uyz56cgLMwsHWApPb-165" value="&lt;font style=&quot;font-size: 16px;&quot;&gt;&quot;second commit&quot;&lt;/font&gt;" style="text;html=1;align=center;verticalAlign=middle;whiteSpace=wrap;rounded=0;" vertex="1" parent="1">
          <mxGeometry x="928.5" y="3840" width="120.5" height="30" as="geometry" />
        </mxCell>
        <mxCell id="hq4Uyz56cgLMwsHWApPb-166" value="&lt;font style=&quot;font-size: 16px;&quot;&gt;&lt;b style=&quot;&quot;&gt;git init&lt;/b&gt;&lt;/font&gt;" style="rounded=1;whiteSpace=wrap;html=1;fillColor=#f5f5f5;fontColor=#333333;strokeColor=#666666;" vertex="1" parent="1">
          <mxGeometry x="550" y="620" width="130" height="30" as="geometry" />
        </mxCell>
        <mxCell id="hq4Uyz56cgLMwsHWApPb-167" value="&lt;font style=&quot;font-size: 16px;&quot;&gt;&lt;b style=&quot;&quot;&gt;echo &quot;i&#39;m Luigi&quot; &amp;gt; file1.txt&lt;/b&gt;&lt;/font&gt;" style="rounded=1;whiteSpace=wrap;html=1;fillColor=#f5f5f5;fontColor=#333333;strokeColor=#666666;" vertex="1" parent="1">
          <mxGeometry x="497" y="1120" width="240" height="30" as="geometry" />
        </mxCell>
        <mxCell id="hq4Uyz56cgLMwsHWApPb-168" value="&lt;font style=&quot;font-size: 16px;&quot;&gt;&lt;b style=&quot;&quot;&gt;git add .&lt;/b&gt;&lt;/font&gt;" style="rounded=1;whiteSpace=wrap;html=1;fillColor=#f5f5f5;fontColor=#333333;strokeColor=#666666;" vertex="1" parent="1">
          <mxGeometry x="550" y="1630" width="150" height="30" as="geometry" />
        </mxCell>
        <mxCell id="hq4Uyz56cgLMwsHWApPb-169" value="&lt;font style=&quot;font-size: 16px;&quot;&gt;&lt;b style=&quot;&quot;&gt;git commit -m &quot;first commit&quot;&lt;/b&gt;&lt;/font&gt;" style="rounded=1;whiteSpace=wrap;html=1;fillColor=#f5f5f5;fontColor=#333333;strokeColor=#666666;" vertex="1" parent="1">
          <mxGeometry x="515" y="2170" width="240" height="30" as="geometry" />
        </mxCell>
        <mxCell id="hq4Uyz56cgLMwsHWApPb-170" value="&lt;font style=&quot;font-size: 16px;&quot;&gt;&lt;b style=&quot;&quot;&gt;echo &quot;ciao!&quot; &amp;gt;&amp;gt; file1.txt&lt;/b&gt;&lt;/font&gt;" style="rounded=1;whiteSpace=wrap;html=1;fillColor=#f5f5f5;fontColor=#333333;strokeColor=#666666;" vertex="1" parent="1">
          <mxGeometry x="517" y="2660" width="240" height="30" as="geometry" />
        </mxCell>
        <mxCell id="hq4Uyz56cgLMwsHWApPb-171" value="&lt;font style=&quot;font-size: 16px;&quot;&gt;&lt;b style=&quot;&quot;&gt;git add .&lt;/b&gt;&lt;/font&gt;" style="rounded=1;whiteSpace=wrap;html=1;fillColor=#f5f5f5;fontColor=#333333;strokeColor=#666666;" vertex="1" parent="1">
          <mxGeometry x="573.5" y="3180" width="143" height="30" as="geometry" />
        </mxCell>
        <mxCell id="hq4Uyz56cgLMwsHWApPb-173" value="&lt;font style=&quot;font-size: 16px;&quot;&gt;&lt;b style=&quot;&quot;&gt;git commit -m &quot;second commit&quot;&lt;/b&gt;&lt;/font&gt;" style="rounded=1;whiteSpace=wrap;html=1;fillColor=#f5f5f5;fontColor=#333333;strokeColor=#666666;" vertex="1" parent="1">
          <mxGeometry x="527" y="3730" width="265" height="30" as="geometry" />
        </mxCell>
      </root>
    </mxGraphModel>
  </diagram>
</mxfile>
